<svg xmlns="http://www.w3.org/2000/svg" viewBox="0 0 480 320" font-family="Helvetica Neue, Arial, sans-serif">
  <rect width="480" height="320" fill="#ffffff" rx="6"/>

  <!-- Title -->
  <text x="240" y="28" text-anchor="middle" font-size="12" fill="#1a1a2e" font-weight="600">Attention Pattern (Layer 6)</text>

  <!-- Heatmap grid 12x12 -->
  <g transform="translate(110, 40)">
    <!-- Row labels -->
    <text x="-8" y="17" text-anchor="end" font-size="8" fill="#6c757d">1</text>
    <text x="-8" y="38" text-anchor="end" font-size="8" fill="#6c757d">2</text>
    <text x="-8" y="59" text-anchor="end" font-size="8" fill="#6c757d">3</text>
    <text x="-8" y="80" text-anchor="end" font-size="8" fill="#6c757d">4</text>
    <text x="-8" y="101" text-anchor="end" font-size="8" fill="#6c757d">5</text>
    <text x="-8" y="122" text-anchor="end" font-size="8" fill="#6c757d">6</text>
    <text x="-8" y="143" text-anchor="end" font-size="8" fill="#6c757d">7</text>
    <text x="-8" y="164" text-anchor="end" font-size="8" fill="#6c757d">8</text>
    <text x="-8" y="185" text-anchor="end" font-size="8" fill="#6c757d">9</text>
    <text x="-8" y="206" text-anchor="end" font-size="8" fill="#6c757d">10</text>
    <text x="-8" y="227" text-anchor="end" font-size="8" fill="#6c757d">11</text>
    <text x="-8" y="248" text-anchor="end" font-size="8" fill="#6c757d">12</text>

    <!-- Sparse attention pattern - diagonal dominant with hub tokens -->
    <!-- Row 1 -->
    <rect x="0" y="4" width="20" height="20" fill="#16213e" rx="2"/>
    <rect x="21" y="4" width="20" height="20" fill="#2a4a7f" rx="2"/>
    <rect x="42" y="4" width="20" height="20" fill="#f0f2f5" rx="2"/>
    <rect x="63" y="4" width="20" height="20" fill="#f0f2f5" rx="2"/>
    <rect x="84" y="4" width="20" height="20" fill="#f0f2f5" rx="2"/>
    <rect x="105" y="4" width="20" height="20" fill="#cce5ff" rx="2"/>
    <rect x="126" y="4" width="20" height="20" fill="#f0f2f5" rx="2"/>
    <rect x="147" y="4" width="20" height="20" fill="#f0f2f5" rx="2"/>
    <rect x="168" y="4" width="20" height="20" fill="#f0f2f5" rx="2"/>
    <rect x="189" y="4" width="20" height="20" fill="#f0f2f5" rx="2"/>
    <rect x="210" y="4" width="20" height="20" fill="#f0f2f5" rx="2"/>
    <rect x="231" y="4" width="20" height="20" fill="#f0f2f5" rx="2"/>
    <!-- Row 2 -->
    <rect x="0" y="25" width="20" height="20" fill="#2a4a7f" rx="2"/>
    <rect x="21" y="25" width="20" height="20" fill="#16213e" rx="2"/>
    <rect x="42" y="25" width="20" height="20" fill="#2a4a7f" rx="2"/>
    <rect x="63" y="25" width="20" height="20" fill="#f0f2f5" rx="2"/>
    <rect x="84" y="25" width="20" height="20" fill="#f0f2f5" rx="2"/>
    <rect x="105" y="25" width="20" height="20" fill="#cce5ff" rx="2"/>
    <rect x="126" y="25" width="20" height="20" fill="#f0f2f5" rx="2"/>
    <rect x="147" y="25" width="20" height="20" fill="#f0f2f5" rx="2"/>
    <rect x="168" y="25" width="20" height="20" fill="#f0f2f5" rx="2"/>
    <rect x="189" y="25" width="20" height="20" fill="#f0f2f5" rx="2"/>
    <rect x="210" y="25" width="20" height="20" fill="#f0f2f5" rx="2"/>
    <rect x="231" y="25" width="20" height="20" fill="#f0f2f5" rx="2"/>
    <!-- Row 3 -->
    <rect x="0" y="46" width="20" height="20" fill="#f0f2f5" rx="2"/>
    <rect x="21" y="46" width="20" height="20" fill="#2a4a7f" rx="2"/>
    <rect x="42" y="46" width="20" height="20" fill="#16213e" rx="2"/>
    <rect x="63" y="46" width="20" height="20" fill="#2a4a7f" rx="2"/>
    <rect x="84" y="46" width="20" height="20" fill="#f0f2f5" rx="2"/>
    <rect x="105" y="46" width="20" height="20" fill="#cce5ff" rx="2"/>
    <rect x="126" y="46" width="20" height="20" fill="#f0f2f5" rx="2"/>
    <rect x="147" y="46" width="20" height="20" fill="#f0f2f5" rx="2"/>
    <rect x="168" y="46" width="20" height="20" fill="#f0f2f5" rx="2"/>
    <rect x="189" y="46" width="20" height="20" fill="#f0f2f5" rx="2"/>
    <rect x="210" y="46" width="20" height="20" fill="#f0f2f5" rx="2"/>
    <rect x="231" y="46" width="20" height="20" fill="#f0f2f5" rx="2"/>
    <!-- Row 4 -->
    <rect x="0" y="67" width="20" height="20" fill="#f0f2f5" rx="2"/>
    <rect x="21" y="67" width="20" height="20" fill="#f0f2f5" rx="2"/>
    <rect x="42" y="67" width="20" height="20" fill="#2a4a7f" rx="2"/>
    <rect x="63" y="67" width="20" height="20" fill="#16213e" rx="2"/>
    <rect x="84" y="67" width="20" height="20" fill="#2a4a7f" rx="2"/>
    <rect x="105" y="67" width="20" height="20" fill="#cce5ff" rx="2"/>
    <rect x="126" y="67" width="20" height="20" fill="#f0f2f5" rx="2"/>
    <rect x="147" y="67" width="20" height="20" fill="#f0f2f5" rx="2"/>
    <rect x="168" y="67" width="20" height="20" fill="#f0f2f5" rx="2"/>
    <rect x="189" y="67" width="20" height="20" fill="#f0f2f5" rx="2"/>
    <rect x="210" y="67" width="20" height="20" fill="#f0f2f5" rx="2"/>
    <rect x="231" y="67" width="20" height="20" fill="#f0f2f5" rx="2"/>
    <!-- Row 5 -->
    <rect x="0" y="88" width="20" height="20" fill="#f0f2f5" rx="2"/>
    <rect x="21" y="88" width="20" height="20" fill="#f0f2f5" rx="2"/>
    <rect x="42" y="88" width="20" height="20" fill="#f0f2f5" rx="2"/>
    <rect x="63" y="88" width="20" height="20" fill="#2a4a7f" rx="2"/>
    <rect x="84" y="88" width="20" height="20" fill="#16213e" rx="2"/>
    <rect x="105" y="88" width="20" height="20" fill="#2a4a7f" rx="2"/>
    <rect x="126" y="88" width="20" height="20" fill="#f0f2f5" rx="2"/>
    <rect x="147" y="88" width="20" height="20" fill="#f0f2f5" rx="2"/>
    <rect x="168" y="88" width="20" height="20" fill="#f0f2f5" rx="2"/>
    <rect x="189" y="88" width="20" height="20" fill="#f0f2f5" rx="2"/>
    <rect x="210" y="88" width="20" height="20" fill="#f0f2f5" rx="2"/>
    <rect x="231" y="88" width="20" height="20" fill="#f0f2f5" rx="2"/>
    <!-- Row 6 (hub token) -->
    <rect x="0" y="109" width="20" height="20" fill="#cce5ff" rx="2"/>
    <rect x="21" y="109" width="20" height="20" fill="#cce5ff" rx="2"/>
    <rect x="42" y="109" width="20" height="20" fill="#cce5ff" rx="2"/>
    <rect x="63" y="109" width="20" height="20" fill="#cce5ff" rx="2"/>
    <rect x="84" y="109" width="20" height="20" fill="#cce5ff" rx="2"/>
    <rect x="105" y="109" width="20" height="20" fill="#e94560" rx="2"/>
    <rect x="126" y="109" width="20" height="20" fill="#cce5ff" rx="2"/>
    <rect x="147" y="109" width="20" height="20" fill="#cce5ff" rx="2"/>
    <rect x="168" y="109" width="20" height="20" fill="#cce5ff" rx="2"/>
    <rect x="189" y="109" width="20" height="20" fill="#cce5ff" rx="2"/>
    <rect x="210" y="109" width="20" height="20" fill="#cce5ff" rx="2"/>
    <rect x="231" y="109" width="20" height="20" fill="#cce5ff" rx="2"/>
    <!-- Row 7-12 (mirror pattern) -->
    <rect x="0" y="130" width="20" height="20" fill="#f0f2f5" rx="2"/>
    <rect x="21" y="130" width="20" height="20" fill="#f0f2f5" rx="2"/>
    <rect x="42" y="130" width="20" height="20" fill="#f0f2f5" rx="2"/>
    <rect x="63" y="130" width="20" height="20" fill="#f0f2f5" rx="2"/>
    <rect x="84" y="130" width="20" height="20" fill="#f0f2f5" rx="2"/>
    <rect x="105" y="130" width="20" height="20" fill="#cce5ff" rx="2"/>
    <rect x="126" y="130" width="20" height="20" fill="#16213e" rx="2"/>
    <rect x="147" y="130" width="20" height="20" fill="#2a4a7f" rx="2"/>
    <rect x="168" y="130" width="20" height="20" fill="#f0f2f5" rx="2"/>
    <rect x="189" y="130" width="20" height="20" fill="#f0f2f5" rx="2"/>
    <rect x="210" y="130" width="20" height="20" fill="#f0f2f5" rx="2"/>
    <rect x="231" y="130" width="20" height="20" fill="#f0f2f5" rx="2"/>

    <rect x="0" y="151" width="20" height="20" fill="#f0f2f5" rx="2"/>
    <rect x="21" y="151" width="20" height="20" fill="#f0f2f5" rx="2"/>
    <rect x="42" y="151" width="20" height="20" fill="#f0f2f5" rx="2"/>
    <rect x="63" y="151" width="20" height="20" fill="#f0f2f5" rx="2"/>
    <rect x="84" y="151" width="20" height="20" fill="#f0f2f5" rx="2"/>
    <rect x="105" y="151" width="20" height="20" fill="#cce5ff" rx="2"/>
    <rect x="126" y="151" width="20" height="20" fill="#2a4a7f" rx="2"/>
    <rect x="147" y="151" width="20" height="20" fill="#16213e" rx="2"/>
    <rect x="168" y="151" width="20" height="20" fill="#2a4a7f" rx="2"/>
    <rect x="189" y="151" width="20" height="20" fill="#f0f2f5" rx="2"/>
    <rect x="210" y="151" width="20" height="20" fill="#f0f2f5" rx="2"/>
    <rect x="231" y="151" width="20" height="20" fill="#f0f2f5" rx="2"/>

    <rect x="0" y="172" width="20" height="20" fill="#f0f2f5" rx="2"/>
    <rect x="21" y="172" width="20" height="20" fill="#f0f2f5" rx="2"/>
    <rect x="42" y="172" width="20" height="20" fill="#f0f2f5" rx="2"/>
    <rect x="63" y="172" width="20" height="20" fill="#f0f2f5" rx="2"/>
    <rect x="84" y="172" width="20" height="20" fill="#f0f2f5" rx="2"/>
    <rect x="105" y="172" width="20" height="20" fill="#cce5ff" rx="2"/>
    <rect x="126" y="172" width="20" height="20" fill="#f0f2f5" rx="2"/>
    <rect x="147" y="172" width="20" height="20" fill="#2a4a7f" rx="2"/>
    <rect x="168" y="172" width="20" height="20" fill="#16213e" rx="2"/>
    <rect x="189" y="172" width="20" height="20" fill="#2a4a7f" rx="2"/>
    <rect x="210" y="172" width="20" height="20" fill="#f0f2f5" rx="2"/>
    <rect x="231" y="172" width="20" height="20" fill="#f0f2f5" rx="2"/>

    <rect x="0" y="193" width="20" height="20" fill="#f0f2f5" rx="2"/>
    <rect x="21" y="193" width="20" height="20" fill="#f0f2f5" rx="2"/>
    <rect x="42" y="193" width="20" height="20" fill="#f0f2f5" rx="2"/>
    <rect x="63" y="193" width="20" height="20" fill="#f0f2f5" rx="2"/>
    <rect x="84" y="193" width="20" height="20" fill="#f0f2f5" rx="2"/>
    <rect x="105" y="193" width="20" height="20" fill="#cce5ff" rx="2"/>
    <rect x="126" y="193" width="20" height="20" fill="#f0f2f5" rx="2"/>
    <rect x="147" y="193" width="20" height="20" fill="#f0f2f5" rx="2"/>
    <rect x="168" y="193" width="20" height="20" fill="#2a4a7f" rx="2"/>
    <rect x="189" y="193" width="20" height="20" fill="#16213e" rx="2"/>
    <rect x="210" y="193" width="20" height="20" fill="#2a4a7f" rx="2"/>
    <rect x="231" y="193" width="20" height="20" fill="#f0f2f5" rx="2"/>

    <rect x="0" y="214" width="20" height="20" fill="#f0f2f5" rx="2"/>
    <rect x="21" y="214" width="20" height="20" fill="#f0f2f5" rx="2"/>
    <rect x="42" y="214" width="20" height="20" fill="#f0f2f5" rx="2"/>
    <rect x="63" y="214" width="20" height="20" fill="#f0f2f5" rx="2"/>
    <rect x="84" y="214" width="20" height="20" fill="#f0f2f5" rx="2"/>
    <rect x="105" y="214" width="20" height="20" fill="#cce5ff" rx="2"/>
    <rect x="126" y="214" width="20" height="20" fill="#f0f2f5" rx="2"/>
    <rect x="147" y="214" width="20" height="20" fill="#f0f2f5" rx="2"/>
    <rect x="168" y="214" width="20" height="20" fill="#f0f2f5" rx="2"/>
    <rect x="189" y="214" width="20" height="20" fill="#2a4a7f" rx="2"/>
    <rect x="210" y="214" width="20" height="20" fill="#16213e" rx="2"/>
    <rect x="231" y="214" width="20" height="20" fill="#2a4a7f" rx="2"/>

    <rect x="0" y="235" width="20" height="20" fill="#f0f2f5" rx="2"/>
    <rect x="21" y="235" width="20" height="20" fill="#f0f2f5" rx="2"/>
    <rect x="42" y="235" width="20" height="20" fill="#f0f2f5" rx="2"/>
    <rect x="63" y="235" width="20" height="20" fill="#f0f2f5" rx="2"/>
    <rect x="84" y="235" width="20" height="20" fill="#f0f2f5" rx="2"/>
    <rect x="105" y="235" width="20" height="20" fill="#cce5ff" rx="2"/>
    <rect x="126" y="235" width="20" height="20" fill="#f0f2f5" rx="2"/>
    <rect x="147" y="235" width="20" height="20" fill="#f0f2f5" rx="2"/>
    <rect x="168" y="235" width="20" height="20" fill="#f0f2f5" rx="2"/>
    <rect x="189" y="235" width="20" height="20" fill="#f0f2f5" rx="2"/>
    <rect x="210" y="235" width="20" height="20" fill="#2a4a7f" rx="2"/>
    <rect x="231" y="235" width="20" height="20" fill="#16213e" rx="2"/>
  </g>

  <!-- Legend -->
  <g transform="translate(380, 80)">
    <rect x="0" y="0" width="12" height="12" fill="#16213e" rx="2"/>
    <text x="18" y="10" font-size="9" fill="#1a1a2e">Self (diagonal)</text>
    <rect x="0" y="20" width="12" height="12" fill="#2a4a7f" rx="2"/>
    <text x="18" y="30" font-size="9" fill="#1a1a2e">Local neighbor</text>
    <rect x="0" y="40" width="12" height="12" fill="#cce5ff" rx="2"/>
    <text x="18" y="50" font-size="9" fill="#1a1a2e">Hub token</text>
    <rect x="0" y="60" width="12" height="12" fill="#e94560" rx="2"/>
    <text x="18" y="70" font-size="9" fill="#1a1a2e">Hub self</text>
    <rect x="0" y="80" width="12" height="12" fill="#f0f2f5" rx="2"/>
    <text x="18" y="90" font-size="9" fill="#1a1a2e">Masked (sparse)</text>
  </g>

  <!-- Annotation -->
  <text x="380" y="210" font-size="9" fill="#6c757d">← Hub token (row 6)</text>
  <text x="380" y="225" font-size="9" fill="#6c757d">  attends globally</text>
  <line x1="370" y1="205" x2="365" y2="160" stroke="#6c757d" stroke-width="0.8" stroke-dasharray="3,2"/>
</svg>
